# Blender 3.5.1
# www.blender.org
o Hull_Baked
v -2.014781 0.059122 0.225000
v 2.300000 0.000000 0.750000
v -2.014781 0.059122 -0.225000
v 2.300000 0.000000 -0.750000
v 2.406111 0.838529 0.772917
v 2.406111 0.838529 -0.772917
v -2.235219 0.940879 0.225000
v -2.235219 0.940879 -0.225000
v 2.637899 0.548795 -0.745754
v 2.637899 0.548795 0.745754
v -2.125000 0.500000 0.884151
v -2.125000 0.500000 -0.884151
v 2.600000 0.000000 0.000000
v 2.600000 1.000000 0.000000
v 3.000000 0.500000 0.000000
v -2.068900 0.275598 0.800000
v -2.181100 0.724402 0.800000
v -2.181100 0.724402 -0.800000
v -2.068900 0.275598 -0.800000
v -1.977295 0.115336 0.202500
v -2.175690 0.908917 0.202500
v -2.175690 0.908917 -0.202500
v -1.977295 0.115336 -0.202500
v 2.377138 0.548795 -0.881567
v 2.377138 0.548795 0.881567
v 2.750000 0.500000 0.703125
v 2.350000 1.000000 0.750000
v 2.300000 0.500000 0.937500
v 2.350000 1.000000 -0.750000
v 2.750000 0.500000 -0.703125
v 2.300000 0.500000 -0.937500
v 2.405150 0.802672 -0.755675
v 2.602170 0.556398 -0.732587
v 2.380523 0.556398 -0.848028
v 2.602170 0.556398 0.732587
v 2.405150 0.802672 0.755675
v 2.380523 0.556398 0.848028
v -2.000000 0.000000 0.750000
v -2.250000 1.000000 0.750000
v -2.125000 0.500000 0.937500
v -2.125000 0.500000 -0.937500
v -2.250000 1.000000 -0.750000
v -2.000000 0.000000 -0.750000
v -2.100746 0.506063 -0.875736
v -2.148432 0.696805 -0.804208
v -2.053061 0.315322 -0.804208
v -2.053061 0.315322 0.804208
v -2.148432 0.696805 0.804208
v -2.100746 0.506063 0.875736
vn -0.1610 -0.0403 -0.9861
vn 0.7582 0.5968 0.2627
vn 0.7610 0.5942 0.2602
vn 0.7524 0.6019 0.2675
vn -0.4730 -0.8810 -0.0000
vn -0.0000 1.0000 -0.0000
vn 0.4383 -0.3156 -0.8416
vn 0.4383 -0.3156 0.8416
vn 0.1203 0.9655 0.2310
vn 0.1203 0.9655 -0.2310
vn -0.0000 -1.0000 -0.0000
vn 0.7410 -0.6117 0.2769
vn 0.7355 -0.6164 0.2814
vn 0.7247 -0.6251 0.2899
vn 0.7355 -0.6164 -0.2814
vn 0.7410 -0.6117 -0.2769
vn 0.7247 -0.6251 -0.2899
vn 0.7610 0.5942 -0.2602
vn 0.7582 0.5968 -0.2627
vn 0.7524 0.6019 -0.2675
vn -0.2135 -0.3894 -0.8960
vn -0.9701 -0.2425 -0.0000
vn -0.3981 -0.0995 0.9119
vn -0.8320 0.5548 -0.0000
vn -0.3981 -0.0995 -0.9119
vn -0.0000 -0.3511 -0.9363
vn -0.0000 0.3511 -0.9363
vn -0.0000 0.3511 0.9363
vn -0.0000 -0.3511 0.9363
vn 0.4441 0.2753 0.8526
vn 0.4441 0.2753 -0.8526
vn 0.9941 -0.0675 -0.0850
vn -0.3904 -0.3904 -0.8338
vn -0.3904 -0.3905 -0.8338
vn 0.9941 -0.0675 0.0850
vn -0.3904 -0.3905 0.8338
vn -0.3904 -0.3904 0.8338
vn -0.3716 0.2431 0.8960
vn -0.2135 -0.3894 0.8960
vn -0.3716 0.2431 -0.8960
vn -0.1610 -0.0403 0.9861
vn 0.7665 0.5892 0.2555
vn 0.7524 -0.6019 0.2675
vn 0.7524 -0.6019 -0.2675
vn 0.7665 0.5892 -0.2555
vn -0.3717 0.2431 -0.8960
vt 0.264404 0.531349
vt 0.720162 0.664986
vt 0.049578 0.531349
vt 0.628169 0.501787
vt 0.706956 0.020591
vt 0.357648 0.485107
vt 0.240489 0.728226
vt 0.720162 0.764774
vt 0.175335 0.769845
vt 0.628169 0.834415
vt 0.357648 0.971503
vt 0.690276 0.485107
vt 0.254032 0.819949
vt 0.045067 0.717495
vt 0.233253 0.888693
vt 0.179846 0.955990
vt 0.917120 0.664986
vt 0.264404 0.728226
vt 0.917120 0.764774
vt 0.240489 0.531349
vt 0.599914 0.851094
vt 0.174018 0.892207
vt 0.233253 0.819949
vt 0.286092 0.866775
vt 0.050895 0.653711
vt 0.254032 0.888693
vt 0.818641 0.518817
vt 0.307744 0.684062
vt 0.818641 0.910942
vt 0.281084 0.682627
vt 0.594906 0.668101
vt 0.215893 0.531451
vt 0.009020 0.769947
vt 0.644849 0.668101
vt 0.216574 0.753165
vt 0.008340 0.991660
vt 0.216236 0.643125
vt 0.008677 0.881620
vt 0.315537 0.733449
vt 0.324542 0.850336
vt 0.768516 0.537478
vt 0.315537 0.633241
vt 0.868765 0.537478
vt 0.324542 0.750128
vt 0.288878 0.733449
vt 0.337369 0.733449
vt 0.868765 0.892282
vt 0.337369 0.633241
vt 0.288878 0.633241
vt 0.768516 0.892282
vt 0.732186 0.669975
vt 0.257169 0.543284
vt 0.909448 0.669975
vt 0.257169 0.720473
vt 0.909448 0.759785
vt 0.233253 0.539102
vt 0.233253 0.716291
vt 0.732186 0.759785
vt 0.599914 0.892698
vt 0.204137 0.891767
vt 0.286092 0.825172
vt 0.020777 0.653272
vt 0.060316 0.643093
vt 0.672367 0.834415
vt 0.008340 0.008340
vt 0.927535 0.024845
vt 0.050259 0.753165
vt 0.821516 0.008340
vt 0.008340 0.642334
vt 0.672367 0.501787
vt 0.340968 0.008340
vt 0.578227 0.967249
vt 0.174655 0.991660
vt 0.164598 0.881588
vt 0.472209 0.983754
vt 0.216574 0.880829
vt 0.304897 0.808492
vt 0.176047 0.948026
vt 0.237353 0.881354
vt 0.281084 0.759535
vt 0.594906 0.851834
vt 0.237353 0.822922
vt 0.304897 0.750128
vt 0.594906 0.887197
vt 0.196694 0.893437
vt 0.233253 0.793863
vt 0.281084 0.866036
vt 0.258132 0.885720
vt 0.257066 0.744906
vt 0.048866 0.709531
vt 0.258132 0.827287
vt 0.257066 0.803270
vt 0.281084 0.830673
vt 0.028219 0.654941
vt 0.357648 0.008340
vt 0.706956 0.455698
vt 0.706956 0.548566
vt 0.008340 0.514670
vt 0.927535 0.490308
vt 0.930326 0.548566
vt 0.821516 0.456095
vt 0.818641 0.506987
vt 0.472209 0.535999
vt 0.818641 0.922773
vt 0.578227 0.501787
vt 0.340968 0.514670
vt 0.930326 0.881194
vt 0.690276 0.008340
vt 0.357648 0.536397
vt 0.706956 0.881194
vt 0.281084 0.573955
vt 0.284439 0.683649
vt 0.296945 0.616561
vt 0.334403 0.726919
vt 0.291064 0.726847
vt 0.296945 0.531349
vt 0.334403 0.641742
vt 0.291064 0.641670
vt 0.329486 0.616561
vt 0.317724 0.725019
vt 0.321576 0.841835
vt 0.329486 0.531349
vt 0.317724 0.639843
vt 0.321576 0.756658
vt 0.313625 0.573955
vt 0.311099 0.683041
s 1
f 18/46/1 46/117/1 19/48/1
f 14/35/2 26/63/3 15/37/4
f 22/55/5 7/17/5 8/19/5
f 27/65/6 42/106/6 39/98/6
f 4/9/7 31/76/7 30/74/7
f 26/63/8 28/69/8 2/3/8
f 10/24/9 37/93/9 25/61/9
f 34/84/10 9/21/10 24/59/10
f 43/108/11 2/6/11 38/95/11
f 13/32/12 26/63/13 2/3/14
f 30/74/15 13/33/16 4/9/17
f 13/31/11 2/4/11 4/10/11
f 14/34/6 29/70/6 27/64/6
f 30/74/18 14/36/19 15/38/20
f 48/123/21 11/28/21 17/42/21
f 38/97/22 7/17/22 1/2/22
f 42/107/22 3/8/22 8/19/22
f 43/110/22 1/2/22 3/8/22
f 39/100/22 8/19/22 7/17/22
f 21/53/22 23/58/22 20/51/22
f 23/57/23 8/20/23 3/7/23
f 20/51/24 3/8/24 1/2/24
f 7/18/25 20/52/25 1/1/25
f 43/109/26 31/75/26 4/11/26
f 29/72/27 41/103/27 42/105/27
f 27/66/28 40/101/28 28/68/28
f 28/68/29 38/96/29 2/5/29
f 26/63/30 5/14/30 10/25/30
f 5/14/30 28/69/30 25/62/30
f 28/69/30 10/25/30 25/62/30
f 6/16/31 30/74/31 9/22/31
f 31/76/31 6/16/31 24/60/31
f 9/22/31 31/76/31 24/60/31
f 32/77/31 33/80/31 34/83/31
f 32/78/32 24/60/32 6/16/32
f 9/23/33 32/79/34 6/15/34
f 37/92/30 35/86/30 36/89/30
f 25/62/35 36/90/35 5/14/35
f 36/91/36 10/26/37 5/13/36
f 39/100/22 16/41/22 17/43/22
f 16/41/22 40/102/22 11/27/22
f 40/102/22 17/43/22 11/27/22
f 18/47/22 41/104/22 12/29/22
f 41/104/22 19/50/22 12/29/22
f 43/110/22 18/47/22 19/50/22
f 44/111/22 46/116/22 45/113/22
f 46/118/38 12/30/38 19/49/38
f 12/30/39 45/115/39 18/45/39
f 47/119/22 49/125/22 48/122/22
f 11/28/40 47/120/40 16/39/40
f 47/121/41 17/44/41 16/40/41
f 18/46/1 45/114/1 46/117/1
f 14/35/2 27/67/42 26/63/3
f 22/55/5 21/53/5 7/17/5
f 27/65/6 29/71/6 42/106/6
f 10/24/9 35/87/9 37/93/9
f 34/84/10 33/81/10 9/21/10
f 43/108/11 4/12/11 2/6/11
f 13/32/12 15/37/43 26/63/13
f 30/74/15 15/38/44 13/33/16
f 30/74/18 29/73/45 14/36/19
f 48/123/21 49/126/21 11/28/21
f 38/97/22 39/100/22 7/17/22
f 42/107/22 43/110/22 3/8/22
f 43/110/22 38/97/22 1/2/22
f 39/100/22 42/107/22 8/19/22
f 21/53/22 22/55/22 23/58/22
f 23/57/23 22/56/23 8/20/23
f 20/51/24 23/58/24 3/8/24
f 7/18/25 21/54/25 20/52/25
f 43/109/26 41/103/26 31/75/26
f 29/72/27 31/75/27 41/103/27
f 27/66/28 39/99/28 40/101/28
f 28/68/29 40/101/29 38/96/29
f 26/63/30 27/67/30 5/14/30
f 5/14/30 27/67/30 28/69/30
f 28/69/30 26/63/30 10/25/30
f 6/16/31 29/73/31 30/74/31
f 31/76/31 29/73/31 6/16/31
f 9/22/31 30/74/31 31/76/31
f 32/78/32 34/85/32 24/60/32
f 9/23/33 33/82/33 32/79/34
f 25/62/35 37/94/35 36/90/35
f 36/91/36 35/88/37 10/26/37
f 39/100/22 38/97/22 16/41/22
f 16/41/22 38/97/22 40/102/22
f 40/102/22 39/100/22 17/43/22
f 18/47/22 42/107/22 41/104/22
f 41/104/22 43/110/22 19/50/22
f 43/110/22 42/107/22 18/47/22
f 46/118/38 44/112/38 12/30/38
f 12/30/39 44/112/39 45/115/39
f 11/28/40 49/126/46 47/120/40
f 47/121/41 48/124/41 17/44/41
