# Blender 3.5.1
# www.blender.org
o Turret_Baked
v 0.015293 0.000000 -0.650000
v -0.424218 0.000000 -0.459619
v -0.606270 0.000000 0.000000
v -0.424218 0.000000 0.459619
v 0.015293 0.000000 0.650000
v 0.454804 0.000000 0.459619
v 0.636855 0.000000 0.000000
v 0.454804 0.000000 -0.459619
v 1.091074 0.025000 -0.715000
v 1.091074 0.025000 0.715000
v -1.060488 0.025000 -0.715000
v -1.060488 0.025000 0.715000
v 1.091074 0.275000 -0.618750
v 1.091074 0.275000 0.618750
v -1.060488 0.275000 -0.618750
v -1.060488 0.275000 0.618750
v 1.091074 0.525000 -0.216562
v 1.091074 0.525000 0.216562
v -1.060488 0.525000 -0.216562
v -1.060488 0.525000 0.216562
v 1.377949 0.025000 0.607750
v 1.377949 0.025000 -0.607750
v 1.377949 0.237500 0.525937
v 1.377949 0.237500 -0.525937
v 1.377949 0.450000 0.184078
v 1.377949 0.450000 -0.184078
v -1.203926 0.112500 -0.464750
v -1.203926 0.112500 0.464750
v -1.203926 0.275000 -0.402187
v -1.203926 0.275000 0.402187
v -1.203926 0.437500 -0.140766
v -1.203926 0.437500 0.140766
v 1.575000 0.250000 0.169043
v 1.575000 0.080957 0.000000
v 1.575000 0.250000 -0.169043
v 3.384375 0.137305 0.000000
v 3.384375 0.137305 0.000000
v 0.015293 -0.025000 -0.650000
v -0.424218 -0.025000 -0.459619
v -0.606270 -0.025000 0.000000
v -0.424218 -0.025000 0.459619
v 0.015293 -0.025000 0.650000
v 0.454804 -0.025000 0.459619
v 0.636855 -0.025000 0.000000
v 0.454804 -0.025000 -0.459619
v 1.521000 0.065957 0.169043
v 1.521000 0.065957 -0.169043
v 1.091074 0.080957 -0.216562
v 1.091074 0.080957 0.216562
vn 0.0204 -0.9987 -0.0470
vn 0.0204 -0.9987 0.0470
vn 0.0339 -0.9993 0.0134
vn 0.0339 -0.9993 -0.0134
vn 0.0550 -0.9985 -0.0000
vn -0.0204 -0.9987 0.0470
vn -0.0204 -0.9987 -0.0470
vn -0.0339 -0.9993 -0.0134
vn -0.0339 -0.9993 0.0134
vn -0.0550 -0.9985 -0.0000
vn -0.0000 -0.9333 0.3590
vn -0.0000 -0.9333 -0.3590
vn 0.2713 0.8175 -0.5081
vn -0.0000 0.3593 -0.9332
vn -0.8155 0.2079 -0.5401
vn -0.0000 0.3593 0.9332
vn -0.0000 0.8493 0.5279
vn -0.0000 1.0000 -0.0000
vn 0.3294 0.3392 0.8811
vn -0.0000 0.8493 -0.5279
vn -0.5208 -0.8537 -0.0000
vn 0.2713 0.8175 0.5081
vn -0.0000 -1.0000 -0.0000
vn 0.3294 0.3392 -0.8811
vn -1.0000 -0.0000 -0.0000
vn -0.6233 0.6641 -0.4128
vn -0.6233 0.6641 0.4128
vn -0.5208 0.8537 -0.0000
vn -0.8155 0.2079 0.5401
vn 0.9224 -0.2706 -0.2755
vn 0.8576 0.1848 0.4800
vn 0.2753 -0.9614 -0.0000
vn 0.2697 -0.9629 -0.0000
vn 0.9224 -0.2706 0.2755
vn 0.8576 0.1848 -0.4800
vn 0.6699 0.6306 -0.3920
vn 0.6699 0.6306 0.3920
vn 0.9297 -0.0000 0.3683
vn -0.3975 -0.0000 0.9176
vn -0.9297 -0.0000 -0.3683
vn 0.9297 -0.0000 -0.3683
vn 0.3975 -0.0000 0.9176
vn -0.9297 -0.0000 0.3683
vn -0.3975 -0.0000 -0.9176
vn 0.3975 -0.0000 -0.9176
vn 0.2676 -0.9635 -0.0000
vn 0.0460 0.9936 0.1029
vn 0.0460 0.9936 -0.1029
vn -0.1087 0.0319 0.9936
vn -0.0922 -0.0160 0.9956
vn -0.1087 0.0319 -0.9936
vn -0.0922 -0.0160 -0.9956
vn -0.1125 -0.0000 -0.9936
vn -0.1125 -0.0000 0.9936
vn 1.0000 -0.0000 -0.0000
vt 0.415276 0.248527
vt 0.858054 0.617092
vt 0.358443 0.161084
vt 0.835418 0.850974
vt 0.862544 0.519705
vt 0.221236 0.124696
vt 0.831544 0.713762
vt 0.084029 0.160679
vt 0.831544 0.576494
vt 0.027196 0.247954
vt 0.835418 0.519582
vt 0.105217 0.827312
vt 0.084029 0.335397
vt 0.105217 0.723016
vt 0.422131 0.847988
vt 0.221236 0.371785
vt 0.420696 0.715022
vt 0.358443 0.335802
vt 0.422131 0.574845
vt 0.862544 0.690862
vt 0.613972 0.935609
vt 0.434485 0.462805
vt 0.007597 0.462175
vt 0.992403 0.374178
vt 0.449679 0.938961
vt 0.613972 0.516670
vt 0.434485 0.035150
vt 0.958578 0.007597
vt 0.007597 0.034520
vt 0.449679 0.511928
vt 0.449679 0.438217
vt 0.690664 0.930867
vt 0.808895 0.446539
vt 0.914679 0.388648
vt 0.690664 0.511928
vt 0.449679 0.011852
vt 0.524228 0.910219
vt 0.808895 0.020174
vt 0.880853 0.022067
vt 0.524228 0.540671
vt 0.082655 0.723016
vt 0.583953 0.433962
vt 0.007597 0.575323
vt 0.803038 0.648290
vt 0.136295 0.574816
vt 0.709679 0.436875
vt 0.824089 0.450373
vt 0.583954 0.007597
vt 0.598778 0.790115
vt 0.709679 0.010510
vt 0.598778 0.660774
vt 0.398042 0.574816
vt 0.992403 0.439622
vt 0.039614 0.519243
vt 0.267381 0.714319
vt 0.616501 0.984815
vt 0.402468 0.519778
vt 0.336959 0.604282
vt 0.926337 0.451921
vt 0.206229 0.684582
vt 0.473991 0.496734
vt 0.681690 0.980785
vt 0.849336 0.504388
vt 0.282575 0.710728
vt 0.745160 0.626150
vt 0.151489 0.577842
vt 0.038827 0.751232
vt 0.588124 0.493117
vt 0.359098 0.008006
vt 0.474245 0.864230
vt 0.081621 0.007597
vt 0.474245 0.586659
vt 0.522702 0.845548
vt 0.522702 0.605342
vt 0.571159 0.767481
vt 0.571159 0.683409
vt 0.343645 0.706217
vt 0.705858 0.566897
vt 0.220605 0.559621
vt 0.705858 0.728585
vt 0.213184 0.574816
vt 0.007597 0.814073
vt 0.850612 0.616969
vt 0.827963 0.851079
vt 0.855102 0.519582
vt 0.824089 0.713867
vt 0.824089 0.576600
vt 0.827963 0.519687
vt 0.097849 0.827350
vt 0.414672 0.847959
vt 0.097849 0.723054
vt 0.413236 0.714993
vt 0.414672 0.574816
vt 0.855102 0.690739
vt 0.398042 0.702774
vt 0.716115 0.776378
vt 0.716372 0.511928
vt 0.170259 0.548561
vt 0.267381 0.580618
vt 0.716115 0.678213
vt 0.016793 0.867414
vt 0.271185 0.548709
vt 0.801730 0.663484
vt 0.082655 0.853881
vt 0.007597 0.707822
vt 0.801730 0.789244
vt 0.803038 0.516084
vt 0.136295 0.707315
s 1
f 8/18/1 1/1/1 9/22/1
f 5/10/2 6/13/2 10/23/2
f 6/13/3 7/16/3 10/23/3
f 7/16/4 8/18/4 9/22/4
f 10/23/5 7/16/5 9/22/5
f 4/8/6 5/10/6 12/29/6
f 2/3/7 11/27/7 1/1/7
f 2/3/8 3/6/8 11/27/8
f 4/8/9 12/29/9 3/6/9
f 11/27/10 3/6/10 12/29/10
f 10/23/11 12/29/11 5/10/11
f 9/22/12 1/1/12 11/27/12
f 17/42/13 24/61/13 13/31/13
f 11/26/14 13/32/14 9/21/14
f 27/70/15 15/37/15 11/25/15
f 10/24/16 16/39/16 12/28/16
f 14/33/17 20/50/17 16/38/17
f 17/42/18 20/50/18 18/46/18
f 14/34/19 21/53/19 23/59/19
f 15/36/20 17/42/20 13/31/20
f 28/71/21 11/27/21 12/29/21
f 18/47/22 23/59/22 25/63/22
f 9/22/23 21/54/23 10/23/23
f 13/32/24 22/56/24 9/21/24
f 30/74/25 27/70/25 28/72/25
f 30/74/25 31/75/25 29/73/25
f 19/49/26 29/73/26 31/75/26
f 20/51/27 30/74/27 16/40/27
f 19/49/28 32/76/28 20/51/28
f 16/40/29 28/72/29 12/30/29
f 47/99/30 22/55/30 35/81/30
f 21/52/31 33/77/31 23/58/31
f 22/57/32 46/98/33 21/54/32
f 21/52/34 46/95/34 33/77/34
f 22/55/35 24/60/35 35/81/35
f 26/66/36 35/81/36 24/60/36
f 25/64/37 23/58/37 33/77/37
f 6/15/38 44/92/38 7/17/38
f 4/9/39 42/88/39 5/11/39
f 39/84/40 3/7/40 2/4/40
f 7/17/41 45/93/41 8/19/41
f 5/12/42 43/91/42 6/14/42
f 3/7/43 41/87/43 4/9/43
f 38/83/44 2/5/44 1/2/44
f 8/20/45 38/83/45 1/2/45
f 47/102/33 34/79/46 46/98/33
f 34/80/47 49/106/47 46/96/47
f 48/103/48 34/80/48 47/100/48
f 49/106/18 34/80/18 48/103/18
f 47/101/49 35/82/49 48/104/49
f 26/67/50 48/104/50 35/82/50
f 46/97/51 49/107/51 33/78/51
f 25/65/52 33/78/52 49/107/52
f 18/44/53 25/65/53 49/107/53
f 26/67/54 17/41/54 48/104/54
f 49/108/55 17/43/55 18/45/55
f 17/42/13 26/68/13 24/61/13
f 11/26/14 15/35/14 13/32/14
f 27/70/15 29/73/15 15/37/15
f 10/24/16 14/34/16 16/39/16
f 14/33/17 18/46/17 20/50/17
f 17/42/18 19/48/18 20/50/18
f 14/34/19 10/24/19 21/53/19
f 15/36/20 19/48/20 17/42/20
f 28/71/21 27/69/21 11/27/21
f 18/47/22 14/34/22 23/59/22
f 9/22/23 22/57/23 21/54/23
f 13/32/24 24/62/24 22/56/24
f 30/74/25 29/73/25 27/70/25
f 30/74/25 32/76/25 31/75/25
f 19/49/26 15/37/26 29/73/26
f 20/51/27 32/76/27 30/74/27
f 19/49/28 31/75/28 32/76/28
f 16/40/29 30/74/29 28/72/29
f 22/57/32 47/102/33 46/98/33
f 6/15/38 43/90/38 44/92/38
f 4/9/39 41/87/39 42/88/39
f 39/84/40 40/86/40 3/7/40
f 7/17/41 44/92/41 45/93/41
f 5/12/42 42/89/42 43/91/42
f 3/7/43 40/86/43 41/87/43
f 38/83/44 39/85/44 2/5/44
f 8/20/45 45/94/45 38/83/45
f 49/108/55 48/105/55 17/43/55
